<?xml version="1.0" encoding="UTF-8" standalone="no"?>
<!-- Created with Inkscape (http://www.inkscape.org/) -->

<svg
   version="1.1"
   id="svg1"
   width="136.61745"
   height="27.814926"
   viewBox="0 0 136.61745 27.814926"
   xmlns="http://www.w3.org/2000/svg"
   xmlns:svg="http://www.w3.org/2000/svg">
  <defs
     id="defs1">
    <clipPath
       clipPathUnits="userSpaceOnUse"
       id="clipPath200">
      <path
         d="M 0,283.465 H 425.185 V 0 H 0 Z"
         transform="translate(-182.5645,-219.51581)"
         id="path200" />
    </clipPath>
    <clipPath
       clipPathUnits="userSpaceOnUse"
       id="clipPath202">
      <path
         d="M 0,283.465 H 425.185 V 0 H 0 Z"
         transform="translate(-193.46001,-218.70041)"
         id="path202" />
    </clipPath>
    <clipPath
       clipPathUnits="userSpaceOnUse"
       id="clipPath204">
      <path
         d="M 0,283.465 H 425.185 V 0 H 0 Z"
         transform="translate(-202.70901,-218.70041)"
         id="path204" />
    </clipPath>
    <clipPath
       clipPathUnits="userSpaceOnUse"
       id="clipPath206">
      <path
         d="M 0,283.465 H 425.185 V 0 H 0 Z"
         transform="translate(-210.95511,-219.66771)"
         id="path206" />
    </clipPath>
    <clipPath
       clipPathUnits="userSpaceOnUse"
       id="clipPath208">
      <path
         d="M 0,283.465 H 425.185 V 0 H 0 Z"
         transform="translate(-215.5195,-211.86251)"
         id="path208" />
    </clipPath>
    <clipPath
       clipPathUnits="userSpaceOnUse"
       id="clipPath210">
      <path
         d="M 0,283.465 H 425.185 V 0 H 0 Z"
         transform="translate(-228.1006,-211.86251)"
         id="path210" />
    </clipPath>
    <clipPath
       clipPathUnits="userSpaceOnUse"
       id="clipPath212">
      <path
         d="M 0,283.465 H 425.185 V 0 H 0 Z"
         transform="translate(-233.60161,-214.43871)"
         id="path212" />
    </clipPath>
    <clipPath
       clipPathUnits="userSpaceOnUse"
       id="clipPath214">
      <path
         d="M 0,283.465 H 425.185 V 0 H 0 Z"
         transform="translate(-246.7666,-215.51541)"
         id="path214" />
    </clipPath>
    <clipPath
       clipPathUnits="userSpaceOnUse"
       id="clipPath216">
      <path
         d="M 0,283.465 H 425.185 V 0 H 0 Z"
         transform="translate(-256.17771,-219.15651)"
         id="path216" />
    </clipPath>
    <clipPath
       clipPathUnits="userSpaceOnUse"
       id="clipPath218">
      <path
         d="M 0,283.465 H 425.185 V 0 H 0 Z"
         transform="translate(-217.57521,-207.9104)"
         id="path218" />
    </clipPath>
    <clipPath
       clipPathUnits="userSpaceOnUse"
       id="clipPath220">
      <path
         d="M 0,283.465 H 425.185 V 0 H 0 Z"
         transform="translate(-220.10841,-205.4489)"
         id="path220" />
    </clipPath>
    <clipPath
       clipPathUnits="userSpaceOnUse"
       id="clipPath222">
      <path
         d="M 0,283.465 H 425.185 V 0 H 0 Z"
         transform="translate(-222.27151,-206.13791)"
         id="path222" />
    </clipPath>
    <clipPath
       clipPathUnits="userSpaceOnUse"
       id="clipPath224">
      <path
         d="M 0,283.465 H 425.185 V 0 H 0 Z"
         transform="translate(-224.04591,-207.05051)"
         id="path224" />
    </clipPath>
    <clipPath
       clipPathUnits="userSpaceOnUse"
       id="clipPath226">
      <path
         d="M 0,283.465 H 425.185 V 0 H 0 Z"
         transform="translate(-224.04391,-207.71651)"
         id="path226" />
    </clipPath>
    <clipPath
       clipPathUnits="userSpaceOnUse"
       id="clipPath228">
      <path
         d="M 0,283.465 H 425.185 V 0 H 0 Z"
         transform="translate(-226.0186,-207.04661)"
         id="path228" />
    </clipPath>
    <clipPath
       clipPathUnits="userSpaceOnUse"
       id="clipPath230">
      <path
         d="M 0,283.465 H 425.185 V 0 H 0 Z"
         transform="translate(-229.2295,-205.45631)"
         id="path230" />
    </clipPath>
    <clipPath
       clipPathUnits="userSpaceOnUse"
       id="clipPath232">
      <path
         d="M 0,283.465 H 425.185 V 0 H 0 Z"
         transform="translate(-232.207,-207.9236)"
         id="path232" />
    </clipPath>
    <clipPath
       clipPathUnits="userSpaceOnUse"
       id="clipPath234">
      <path
         d="M 0,283.465 H 425.185 V 0 H 0 Z"
         transform="translate(-233.28321,-206.1887)"
         id="path234" />
    </clipPath>
    <clipPath
       clipPathUnits="userSpaceOnUse"
       id="clipPath236">
      <path
         d="M 0,283.465 H 425.185 V 0 H 0 Z"
         transform="translate(-237.14551,-205.4489)"
         id="path236" />
    </clipPath>
    <clipPath
       clipPathUnits="userSpaceOnUse"
       id="clipPath238">
      <path
         d="M 0,283.465 H 425.185 V 0 H 0 Z"
         transform="translate(-239.1826,-206.16721)"
         id="path238" />
    </clipPath>
    <clipPath
       clipPathUnits="userSpaceOnUse"
       id="clipPath240">
      <path
         d="M 0,283.465 H 425.185 V 0 H 0 Z"
         transform="translate(-240.79791,-207.71651)"
         id="path240" />
    </clipPath>
    <clipPath
       clipPathUnits="userSpaceOnUse"
       id="clipPath242">
      <path
         d="M 0,283.465 H 425.185 V 0 H 0 Z"
         transform="translate(-240.79981,-207.05051)"
         id="path242" />
    </clipPath>
    <clipPath
       clipPathUnits="userSpaceOnUse"
       id="clipPath244">
      <path
         d="M 0,283.465 H 425.185 V 0 H 0 Z"
         transform="translate(-242.77341,-207.04661)"
         id="path244" />
    </clipPath>
    <clipPath
       clipPathUnits="userSpaceOnUse"
       id="clipPath246">
      <path
         d="M 0,283.465 H 425.185 V 0 H 0 Z"
         transform="translate(-245.98441,-205.45631)"
         id="path246" />
    </clipPath>
    <clipPath
       clipPathUnits="userSpaceOnUse"
       id="clipPath248">
      <path
         d="M 0,283.465 H 425.185 V 0 H 0 Z"
         transform="translate(-248.93551,-207.71651)"
         id="path248" />
    </clipPath>
    <clipPath
       clipPathUnits="userSpaceOnUse"
       id="clipPath250">
      <path
         d="M 0,283.465 H 425.185 V 0 H 0 Z"
         transform="translate(-248.93751,-207.05051)"
         id="path250" />
    </clipPath>
    <clipPath
       clipPathUnits="userSpaceOnUse"
       id="clipPath252">
      <path
         d="M 0,283.465 H 425.185 V 0 H 0 Z"
         transform="translate(-251.5078,-206.91481)"
         id="path252" />
    </clipPath>
    <clipPath
       clipPathUnits="userSpaceOnUse"
       id="clipPath254">
      <path
         d="M 0,283.465 H 425.185 V 0 H 0 Z"
         transform="translate(-253.9189,-206.91481)"
         id="path254" />
    </clipPath>
    <clipPath
       clipPathUnits="userSpaceOnUse"
       id="clipPath256">
      <path
         d="M 0,283.465 H 425.185 V 0 H 0 Z"
         transform="translate(-256.32811,-207.05051)"
         id="path256" />
    </clipPath>
    <clipPath
       clipPathUnits="userSpaceOnUse"
       id="clipPath258">
      <path
         d="M 0,283.465 H 425.185 V 0 H 0 Z"
         transform="translate(-257.79001,-205.36541)"
         id="path258" />
    </clipPath>
    <clipPath
       clipPathUnits="userSpaceOnUse"
       id="clipPath260">
      <path
         d="M 0,283.465 H 425.185 V 0 H 0 Z"
         transform="translate(-167.83011,-217.82201)"
         id="path260" />
    </clipPath>
    <clipPath
       clipPathUnits="userSpaceOnUse"
       id="clipPath262">
      <path
         d="M 0,283.465 H 425.185 V 0 H 0 Z"
         transform="translate(-164.42091,-215.44451)"
         id="path262" />
    </clipPath>
    <clipPath
       clipPathUnits="userSpaceOnUse"
       id="clipPath264">
      <path
         d="M 0,283.465 H 425.185 V 0 H 0 Z"
         transform="translate(-168.79491,-215.50851)"
         id="path264" />
    </clipPath>
  </defs>
  <g
     id="layer-MC0"
     transform="translate(-207.18254,-77.854005)">
    <path
       id="path199"
       d="m 0,0 c -0.156,-0.153 -0.236,-0.345 -0.236,-0.568 v -6.293 c 0,-0.224 0.08,-0.416 0.234,-0.569 0.157,-0.155 0.35,-0.235 0.57,-0.235 0.217,0 0.414,0.081 0.572,0.233 0.158,0.155 0.239,0.347 0.239,0.571 v 6.293 c 0,0.224 -0.081,0.415 -0.239,0.57 C 0.824,0.307 0.309,0.309 0,0"
       style="fill:#231f20;fill-opacity:1;fill-rule:nonzero;stroke:none"
       transform="matrix(1.3333333,0,0,-1.3333333,243.41933,85.2656)"
       clip-path="url(#clipPath200)" />
    <path
       id="path201"
       d="m 0,0 0.042,0.29 c 0,0.05 -0.01,0.092 -0.021,0.121 L -0.027,0.583 -0.054,0.61 C -0.061,0.627 -0.07,0.644 -0.081,0.662 -0.1,0.698 -0.13,0.748 -0.177,0.79 -0.221,0.854 -0.274,0.9 -0.335,0.925 -0.383,0.969 -0.438,0.996 -0.495,1.004 L -0.627,1.042 -5.369,1.05 c -0.221,0 -0.413,-0.079 -0.57,-0.235 -0.154,-0.154 -0.233,-0.347 -0.233,-0.567 0,-0.22 0.078,-0.412 0.232,-0.572 0.156,-0.161 0.348,-0.242 0.571,-0.242 h 3.021 l -3.61,-4.938 -0.036,-0.005 -0.06,-0.123 -0.076,-0.058 v -0.121 c 0,0.008 0.009,0.032 0.031,0.056 l -0.062,-0.119 v -0.057 c -0.007,-0.03 -0.011,-0.066 -0.011,-0.104 l 0.032,-0.193 c 0,-0.062 0.024,-0.112 0.058,-0.166 l 0.126,-0.181 c 0.03,-0.047 0.062,-0.082 0.098,-0.108 0.05,-0.048 0.103,-0.075 0.148,-0.088 0.058,-0.04 0.121,-0.065 0.195,-0.073 0.048,-0.004 0.098,-0.005 0.146,-0.005 h 4.598 c 0.22,0 0.412,0.078 0.571,0.232 0.16,0.154 0.242,0.347 0.242,0.572 0,0.219 -0.082,0.416 -0.241,0.574 -0.158,0.157 -0.352,0.236 -0.572,0.236 H -3.78 l 3.673,5.002 z"
       style="fill:#231f20;fill-opacity:1;fill-rule:nonzero;stroke:none"
       transform="matrix(1.3333333,0,0,-1.3333333,257.94667,86.3528)"
       clip-path="url(#clipPath202)" />
    <path
       id="path203"
       d="m 0,0 0.042,0.29 c 0,0.048 -0.009,0.096 -0.021,0.121 L -0.027,0.583 -0.054,0.61 C -0.061,0.627 -0.071,0.644 -0.081,0.662 -0.1,0.698 -0.13,0.748 -0.177,0.79 -0.221,0.854 -0.274,0.9 -0.335,0.925 -0.383,0.969 -0.438,0.996 -0.495,1.004 L -0.627,1.042 -5.369,1.05 c -0.221,0 -0.413,-0.079 -0.57,-0.235 -0.154,-0.154 -0.233,-0.347 -0.233,-0.567 0,-0.22 0.078,-0.412 0.232,-0.572 0.156,-0.161 0.348,-0.242 0.571,-0.242 h 3.021 L -5.958,-5.504 -5.995,-5.509 -6.054,-5.632 -6.13,-5.69 v -0.121 c 0,0.008 0.009,0.032 0.03,0.056 l -0.061,-0.119 v -0.057 c -0.007,-0.03 -0.011,-0.066 -0.011,-0.104 l 0.032,-0.193 c 0,-0.062 0.024,-0.112 0.058,-0.166 l 0.126,-0.181 c 0.03,-0.047 0.062,-0.082 0.098,-0.108 0.05,-0.048 0.102,-0.075 0.15,-0.088 0.056,-0.04 0.119,-0.063 0.193,-0.073 0.048,-0.004 0.098,-0.005 0.146,-0.005 h 4.598 c 0.22,0 0.412,0.078 0.571,0.232 0.16,0.154 0.242,0.347 0.242,0.572 0,0.219 -0.082,0.416 -0.241,0.574 -0.158,0.157 -0.352,0.236 -0.572,0.236 H -3.78 l 3.673,5.002 z"
       style="fill:#231f20;fill-opacity:1;fill-rule:nonzero;stroke:none"
       transform="matrix(1.3333333,0,0,-1.3333333,270.27867,86.3528)"
       clip-path="url(#clipPath204)" />
    <path
       id="path205"
       d="m 0,0 c -0.218,-0.032 -0.396,-0.144 -0.53,-0.327 l -1.651,-2.256 -1.646,2.249 c -0.127,0.186 -0.305,0.3 -0.518,0.332 -0.211,0.043 -0.416,-0.013 -0.601,-0.151 -0.182,-0.137 -0.29,-0.314 -0.321,-0.531 -0.025,-0.216 0.029,-0.413 0.158,-0.578 l 2.125,-2.941 v -2.81 c 0,-0.224 0.082,-0.418 0.241,-0.569 0.154,-0.154 0.351,-0.234 0.567,-0.234 0.216,0 0.409,0.08 0.565,0.235 0.153,0.156 0.231,0.348 0.231,0.568 v 2.808 l 2.147,2.943 C 0.894,-1.087 0.94,-0.888 0.905,-0.671 0.871,-0.455 0.767,-0.278 0.594,-0.146 0.416,-0.015 0.218,0.03 0,0"
       style="fill:#231f20;fill-opacity:1;fill-rule:nonzero;stroke:none"
       transform="matrix(1.3333333,0,0,-1.3333333,281.27347,85.063067)"
       clip-path="url(#clipPath206)" />
    <path
       id="path207"
       d="M 0,0 H 4.033 C 4.107,0 4.174,0.026 4.228,0.079 4.284,0.131 4.312,0.195 4.312,0.268 4.312,0.343 4.284,0.409 4.228,0.465 4.174,0.521 4.107,0.549 4.033,0.549 H 0.279 V 7.573 C 0.279,7.648 0.251,7.712 0.194,7.765 0.141,7.817 0.075,7.843 0,7.843 -0.075,7.843 -0.139,7.817 -0.191,7.765 -0.244,7.712 -0.271,7.648 -0.271,7.573 V 0.268 c 0,-0.073 0.027,-0.137 0.08,-0.189 C -0.139,0.026 -0.075,0 0,0"
       style="fill:#231f20;fill-opacity:1;fill-rule:nonzero;stroke:none"
       transform="matrix(1.3333333,0,0,-1.3333333,287.35933,95.47)"
       clip-path="url(#clipPath208)" />
    <path
       id="path209"
       d="m 0,0 c 0.075,0 0.139,0.026 0.189,0.079 0.053,0.052 0.08,0.118 0.08,0.194 0,0.08 -0.027,0.145 -0.08,0.198 C 0.139,0.523 0.075,0.549 0,0.549 h -3.754 v 3.092 h 3.283 c 0.075,0 0.139,0.026 0.192,0.079 0.05,0.052 0.077,0.114 0.077,0.189 0,0.075 -0.027,0.141 -0.077,0.197 -0.053,0.057 -0.117,0.085 -0.192,0.085 H -3.754 V 7.294 H 0 c 0.075,0 0.139,0.026 0.189,0.079 0.053,0.052 0.08,0.116 0.08,0.194 0,0.079 -0.027,0.145 -0.08,0.198 C 0.139,7.817 0.075,7.843 0,7.843 H -4.033 C -4.108,7.843 -4.172,7.817 -4.225,7.765 -4.277,7.712 -4.303,7.648 -4.303,7.573 V 0.268 c 0,-0.073 0.025,-0.135 0.074,-0.184 C -4.182,0.036 -4.123,0.007 -4.056,0 Z"
       style="fill:#231f20;fill-opacity:1;fill-rule:nonzero;stroke:none"
       transform="matrix(1.3333333,0,0,-1.3333333,304.13413,95.47)"
       clip-path="url(#clipPath210)" />
    <path
       id="path211"
       d="M 0,0 1.593,4.213 3.171,0 Z M 1.85,5.064 C 1.812,5.177 1.728,5.233 1.593,5.233 1.457,5.233 1.364,5.177 1.312,5.064 l -2.721,-7.271 c -0.03,-0.067 -0.028,-0.137 0.003,-0.206 0.034,-0.071 0.085,-0.122 0.152,-0.152 l 0.102,-0.011 c 0.127,0 0.211,0.06 0.256,0.18 l 0.696,1.849 h 3.574 l 0.693,-1.849 c 0.045,-0.12 0.131,-0.18 0.259,-0.18 l 0.102,0.011 c 0.065,0.03 0.114,0.081 0.143,0.152 0.031,0.069 0.031,0.139 0,0.206 z"
       style="fill:#231f20;fill-opacity:1;fill-rule:nonzero;stroke:none"
       transform="matrix(1.3333333,0,0,-1.3333333,311.4688,92.035067)"
       clip-path="url(#clipPath212)" />
    <path
       id="path213"
       d="m 0,0 c -0.471,0.32 -1.135,0.56 -1.993,0.716 h -0.023 c -1.494,0.285 -2.248,0.801 -2.262,1.547 0,0.41 0.204,0.769 0.614,1.076 0.441,0.313 0.976,0.469 1.603,0.469 0.269,0 0.544,-0.045 0.824,-0.139 0.279,-0.093 0.504,-0.19 0.671,-0.287 C -0.397,3.287 -0.178,3.151 0.09,2.979 0.232,2.891 0.343,2.912 0.426,3.046 0.516,3.189 0.493,3.305 0.358,3.394 0.075,3.581 -0.155,3.726 -0.336,3.825 c -0.18,0.101 -0.431,0.206 -0.755,0.315 -0.326,0.107 -0.649,0.161 -0.97,0.161 -0.74,0 -1.376,-0.193 -1.911,-0.581 -0.534,-0.388 -0.8,-0.874 -0.8,-1.457 0,-1.024 0.885,-1.699 2.655,-2.029 h 0.022 c 1.636,-0.305 2.453,-0.878 2.453,-1.713 0,-0.457 -0.222,-0.845 -0.671,-1.165 -0.463,-0.345 -1.039,-0.516 -1.725,-0.516 -0.874,-0.007 -1.733,0.328 -2.578,1.009 -0.051,0.045 -0.111,0.062 -0.178,0.056 -0.068,-0.007 -0.124,-0.037 -0.169,-0.09 -0.098,-0.127 -0.087,-0.243 0.033,-0.347 0.942,-0.748 1.906,-1.125 2.892,-1.132 0.776,0 1.453,0.208 2.032,0.628 0.58,0.418 0.868,0.935 0.868,1.551 C 0.862,-0.869 0.575,-0.374 0,0"
       style="fill:#231f20;fill-opacity:1;fill-rule:nonzero;stroke:none"
       transform="matrix(1.3333333,0,0,-1.3333333,329.02213,90.599467)"
       clip-path="url(#clipPath214)" />
    <path
       id="path215"
       d="m 0,0 c 0.075,0 0.139,0.026 0.189,0.079 0.053,0.052 0.079,0.116 0.079,0.194 0,0.08 -0.026,0.145 -0.079,0.198 C 0.139,0.523 0.075,0.549 0,0.549 H -4.033 C -4.108,0.549 -4.172,0.523 -4.225,0.471 -4.277,0.418 -4.304,0.354 -4.304,0.279 v -7.305 c 0,-0.073 0.025,-0.135 0.074,-0.183 0.048,-0.049 0.107,-0.078 0.174,-0.085 H 0 c 0.075,0 0.139,0.026 0.189,0.079 0.053,0.052 0.079,0.118 0.079,0.194 0,0.08 -0.026,0.145 -0.079,0.198 C 0.139,-6.771 0.075,-6.745 0,-6.745 h -3.754 v 3.092 h 3.283 c 0.075,0 0.139,0.027 0.192,0.079 0.05,0.053 0.077,0.115 0.077,0.189 0,0.075 -0.027,0.141 -0.077,0.197 -0.053,0.057 -0.117,0.085 -0.192,0.085 H -3.754 V 0 Z"
       style="fill:#231f20;fill-opacity:1;fill-rule:nonzero;stroke:none"
       transform="matrix(1.3333333,0,0,-1.3333333,341.57027,85.744667)"
       clip-path="url(#clipPath216)" />
    <path
       id="path217"
       d="m 0,0 c -0.029,-0.004 -0.053,-0.018 -0.066,-0.041 l -1.033,-1.437 -1.036,1.437 c -0.04,0.054 -0.087,0.062 -0.142,0.025 l -0.008,-0.007 c -0.028,-0.02 -0.041,-0.047 -0.041,-0.08 v -2.698 c 0,-0.029 0.01,-0.052 0.031,-0.071 0.022,-0.02 0.044,-0.029 0.071,-0.029 0.03,0 0.053,0.009 0.073,0.029 0.018,0.019 0.028,0.042 0.028,0.071 v 2.394 l 0.934,-1.292 c 0.019,-0.029 0.048,-0.044 0.086,-0.044 h 0.008 c 0.037,0 0.065,0.015 0.084,0.044 l 0.934,1.296 v -2.398 c 0,-0.029 0.009,-0.052 0.028,-0.071 0.02,-0.02 0.043,-0.029 0.07,-0.029 0.029,0 0.052,0.009 0.072,0.029 0.019,0.019 0.029,0.042 0.029,0.071 v 2.698 c 0,0.027 -0.016,0.056 -0.047,0.087 C 0.054,-0.002 0.029,0.004 0,0"
       style="fill:#231f20;fill-opacity:1;fill-rule:nonzero;stroke:none"
       transform="matrix(1.3333333,0,0,-1.3333333,290.10027,100.73947)"
       clip-path="url(#clipPath218)" />
    <path
       id="path219"
       d="m 0,0 c -0.149,-0.161 -0.329,-0.24 -0.538,-0.24 -0.21,0 -0.39,0.079 -0.543,0.24 -0.15,0.159 -0.227,0.352 -0.227,0.581 0,0.226 0.077,0.422 0.227,0.583 0.153,0.16 0.333,0.242 0.543,0.242 C -0.329,1.406 -0.149,1.324 0,1.164 0.151,1.003 0.227,0.807 0.227,0.581 0.227,0.352 0.151,0.159 0,0 M 0.325,1.602 C 0.298,1.602 0.274,1.592 0.256,1.572 0.236,1.553 0.227,1.528 0.227,1.5 V 1.201 C 0.138,1.322 0.025,1.419 -0.11,1.493 -0.244,1.564 -0.388,1.602 -0.54,1.602 -0.808,1.602 -1.034,1.5 -1.225,1.301 -1.412,1.102 -1.507,0.861 -1.507,0.581 c 0,-0.281 0.095,-0.521 0.282,-0.721 0.191,-0.199 0.417,-0.3 0.685,-0.3 0.152,0 0.296,0.037 0.43,0.108 0.135,0.072 0.248,0.171 0.337,0.297 v -0.304 c 0,-0.029 0.009,-0.053 0.029,-0.072 0.018,-0.019 0.042,-0.029 0.069,-0.029 0.029,0 0.053,0.01 0.071,0.029 0.02,0.019 0.03,0.043 0.03,0.072 V 1.5 c 0,0.028 -0.01,0.053 -0.03,0.072 -0.018,0.02 -0.042,0.03 -0.071,0.03"
       style="fill:#231f20;fill-opacity:1;fill-rule:nonzero;stroke:none"
       transform="matrix(1.3333333,0,0,-1.3333333,293.47787,104.02147)"
       clip-path="url(#clipPath220)" />
    <path
       id="path221"
       d="M 0,0 0.786,0.787 C 0.81,0.81 0.819,0.833 0.819,0.86 0.819,0.885 0.81,0.909 0.786,0.928 0.74,0.976 0.691,0.976 0.645,0.928 l -1.208,-1.203 v 1.962 c 0,0.027 -0.01,0.05 -0.032,0.07 -0.021,0.019 -0.044,0.029 -0.071,0.029 -0.029,0 -0.053,-0.01 -0.072,-0.029 -0.019,-0.02 -0.029,-0.043 -0.029,-0.07 v -2.715 c 0,-0.029 0.01,-0.053 0.029,-0.072 0.019,-0.019 0.043,-0.029 0.072,-0.029 0.027,0 0.05,0.01 0.071,0.029 0.022,0.019 0.032,0.043 0.032,0.072 v 0.465 l 0.416,0.416 0.784,-0.945 c 0.013,-0.025 0.037,-0.037 0.07,-0.037 0.033,0 0.058,0.008 0.075,0.022 0.047,0.046 0.051,0.094 0.008,0.145 z"
       style="fill:#231f20;fill-opacity:1;fill-rule:nonzero;stroke:none"
       transform="matrix(1.3333333,0,0,-1.3333333,296.362,103.1028)"
       clip-path="url(#clipPath222)" />
    <path
       id="path223"
       d="m 0,0 c -0.029,0 -0.055,-0.01 -0.074,-0.029 -0.02,-0.02 -0.03,-0.045 -0.03,-0.072 v -1.84 c 0,-0.029 0.01,-0.052 0.03,-0.071 0.019,-0.02 0.043,-0.03 0.072,-0.03 0.026,0 0.052,0.01 0.071,0.03 0.022,0.019 0.034,0.042 0.034,0.071 v 1.84 c 0,0.027 -0.012,0.052 -0.032,0.072 C 0.052,-0.01 0.028,0 0,0"
       style="fill:#231f20;fill-opacity:1;fill-rule:nonzero;stroke:none"
       transform="matrix(1.3333333,0,0,-1.3333333,298.72787,101.886)"
       clip-path="url(#clipPath224)" />
    <path
       id="path225"
       d="m 0,0 c -0.029,0 -0.053,-0.01 -0.072,-0.029 -0.02,-0.019 -0.03,-0.045 -0.03,-0.072 v -0.095 c 0,-0.031 0.01,-0.056 0.03,-0.077 0.019,-0.021 0.043,-0.031 0.072,-0.031 0.026,0 0.052,0.01 0.071,0.031 0.022,0.021 0.033,0.046 0.033,0.077 v 0.095 c 0,0.027 -0.011,0.053 -0.033,0.072 C 0.052,-0.01 0.026,0 0,0"
       style="fill:#231f20;fill-opacity:1;fill-rule:nonzero;stroke:none"
       transform="matrix(1.3333333,0,0,-1.3333333,298.7252,100.998)"
       clip-path="url(#clipPath226)" />
    <path
       id="path227"
       d="m 0,0 c -0.241,0 -0.445,-0.099 -0.609,-0.296 v 0.195 c 0,0.027 -0.01,0.051 -0.028,0.07 C -0.654,-0.01 -0.678,0 -0.704,0 c -0.029,0 -0.053,-0.01 -0.072,-0.031 -0.02,-0.019 -0.03,-0.043 -0.03,-0.07 v -1.861 l 0.004,-0.01 c 0,-0.004 0.002,-0.009 0.004,-0.011 0.014,-0.027 0.037,-0.047 0.069,-0.055 h 0.025 c 0.048,0 0.081,0.028 0.095,0.084 v 1.125 c 0.005,0.174 0.069,0.323 0.191,0.445 0.122,0.122 0.27,0.182 0.443,0.182 0.175,0 0.322,-0.062 0.444,-0.184 0.122,-0.123 0.184,-0.273 0.184,-0.443 v -1.108 c 0,-0.029 0.01,-0.052 0.029,-0.071 0.019,-0.02 0.043,-0.03 0.07,-0.03 0.029,0 0.052,0.01 0.071,0.03 0.02,0.019 0.03,0.042 0.03,0.071 v 1.108 c 0,0.226 -0.082,0.422 -0.245,0.585 C 0.446,-0.082 0.244,0 0,0"
       style="fill:#231f20;fill-opacity:1;fill-rule:nonzero;stroke:none"
       transform="matrix(1.3333333,0,0,-1.3333333,301.35813,101.8912)"
       clip-path="url(#clipPath228)" />
    <path
       id="path229"
       d="m 0,0 c -0.148,-0.159 -0.327,-0.238 -0.536,-0.238 -0.211,0 -0.389,0.079 -0.538,0.238 -0.148,0.161 -0.223,0.353 -0.223,0.579 0,0.227 0.075,0.419 0.223,0.577 0.149,0.159 0.327,0.237 0.538,0.237 C -0.327,1.393 -0.148,1.315 0,1.158 0.149,1.001 0.224,0.81 0.224,0.581 0.224,0.354 0.149,0.161 0,0 M 0.326,1.594 C 0.299,1.594 0.275,1.584 0.254,1.565 0.234,1.545 0.224,1.521 0.224,1.493 v -0.3 c -0.086,0.122 -0.197,0.219 -0.332,0.292 -0.133,0.072 -0.279,0.109 -0.43,0.109 -0.266,0 -0.49,-0.101 -0.678,-0.298 -0.187,-0.2 -0.28,-0.438 -0.28,-0.717 0,-0.279 0.093,-0.517 0.278,-0.716 0.186,-0.198 0.412,-0.299 0.68,-0.299 0.155,0 0.299,0.037 0.432,0.107 0.133,0.072 0.244,0.168 0.33,0.294 v -0.25 c 0,-0.211 -0.075,-0.391 -0.224,-0.538 -0.148,-0.147 -0.327,-0.22 -0.538,-0.22 -0.118,0 -0.229,0.024 -0.333,0.075 -0.06,0.033 -0.103,0.019 -0.134,-0.045 -0.029,-0.05 -0.014,-0.094 0.041,-0.133 0.148,-0.064 0.288,-0.097 0.426,-0.097 0.266,0 0.492,0.095 0.68,0.281 0.188,0.188 0.281,0.414 0.281,0.677 v 1.778 c 0,0.028 -0.01,0.052 -0.029,0.072 -0.02,0.019 -0.043,0.029 -0.068,0.029"
       style="fill:#231f20;fill-opacity:1;fill-rule:nonzero;stroke:none"
       transform="matrix(1.3333333,0,0,-1.3333333,305.63933,104.0116)"
       clip-path="url(#clipPath230)" />
    <path
       id="path231"
       d="m 0,0 c -0.029,0 -0.053,-0.009 -0.072,-0.029 -0.02,-0.019 -0.03,-0.042 -0.03,-0.07 v -2.715 c 0,-0.029 0.01,-0.052 0.03,-0.071 0.019,-0.02 0.043,-0.03 0.072,-0.03 0.026,0 0.052,0.01 0.071,0.03 0.022,0.019 0.032,0.042 0.032,0.071 v 2.715 c 0,0.028 -0.01,0.051 -0.032,0.07 C 0.052,-0.009 0.026,0 0,0"
       style="fill:#231f20;fill-opacity:1;fill-rule:nonzero;stroke:none"
       transform="matrix(1.3333333,0,0,-1.3333333,309.60933,100.72187)"
       clip-path="url(#clipPath232)" />
    <path
       id="path233"
       d="M 0,0 C 0.039,0.193 0.132,0.352 0.275,0.476 0.421,0.6 0.587,0.66 0.776,0.66 0.969,0.66 1.135,0.598 1.28,0.474 1.424,0.349 1.513,0.189 1.546,0 Z m 0.77,0.862 c -0.268,0 -0.499,-0.101 -0.692,-0.3 -0.192,-0.2 -0.289,-0.442 -0.289,-0.723 0,-0.283 0.097,-0.523 0.289,-0.72 0.193,-0.2 0.428,-0.299 0.702,-0.299 0.169,0 0.326,0.043 0.473,0.126 0.145,0.083 0.262,0.196 0.351,0.337 0.035,0.054 0.023,0.103 -0.033,0.142 C 1.515,-0.542 1.47,-0.554 1.437,-0.608 1.367,-0.723 1.274,-0.813 1.158,-0.879 1.042,-0.947 0.916,-0.98 0.78,-0.98 0.569,-0.98 0.388,-0.905 0.234,-0.755 0.081,-0.604 0,-0.418 -0.012,-0.198 h 1.674 c 0.028,0 0.052,0.01 0.071,0.026 0.02,0.017 0.03,0.038 0.03,0.067 v 0.016 C 1.741,0.18 1.637,0.406 1.451,0.588 1.265,0.771 1.036,0.862 0.77,0.862"
       style="fill:#231f20;fill-opacity:1;fill-rule:nonzero;stroke:none"
       transform="matrix(1.3333333,0,0,-1.3333333,311.04427,103.03507)"
       clip-path="url(#clipPath234)" />
    <path
       id="path235"
       d="m 0,0 c -0.149,-0.161 -0.33,-0.24 -0.539,-0.24 -0.209,0 -0.389,0.079 -0.542,0.24 -0.151,0.159 -0.227,0.352 -0.227,0.581 0,0.226 0.076,0.422 0.227,0.583 0.153,0.16 0.333,0.242 0.542,0.242 C -0.33,1.406 -0.149,1.324 0,1.164 0.15,1.003 0.227,0.807 0.227,0.581 0.227,0.352 0.15,0.159 0,0 M 0.325,1.602 C 0.298,1.602 0.274,1.592 0.255,1.572 0.236,1.553 0.227,1.528 0.227,1.5 V 1.201 C 0.137,1.322 0.024,1.419 -0.11,1.493 -0.244,1.564 -0.388,1.602 -0.541,1.602 -0.808,1.602 -1.034,1.5 -1.225,1.301 -1.412,1.102 -1.507,0.861 -1.507,0.581 c 0,-0.281 0.095,-0.521 0.282,-0.721 0.191,-0.199 0.417,-0.3 0.684,-0.3 0.153,0 0.297,0.037 0.431,0.108 0.134,0.072 0.247,0.171 0.337,0.297 v -0.304 c 0,-0.029 0.009,-0.053 0.028,-0.072 0.019,-0.019 0.043,-0.029 0.07,-0.029 0.029,0 0.052,0.01 0.071,0.029 0.02,0.019 0.03,0.043 0.03,0.072 V 1.5 c 0,0.028 -0.01,0.053 -0.03,0.072 -0.019,0.02 -0.042,0.03 -0.071,0.03"
       style="fill:#231f20;fill-opacity:1;fill-rule:nonzero;stroke:none"
       transform="matrix(1.3333333,0,0,-1.3333333,316.194,104.02147)"
       clip-path="url(#clipPath236)" />
    <path
       id="path237"
       d="m 0,0 h -0.008 c -0.18,0.027 -0.319,0.076 -0.416,0.141 -0.078,0.06 -0.116,0.132 -0.116,0.213 0,0.08 0.044,0.157 0.137,0.231 0.091,0.074 0.216,0.11 0.378,0.11 0.062,0 0.126,-0.011 0.191,-0.035 C 0.234,0.635 0.284,0.614 0.319,0.593 0.354,0.571 0.404,0.539 0.475,0.492 0.498,0.477 0.522,0.473 0.55,0.479 0.577,0.484 0.599,0.498 0.612,0.521 0.625,0.542 0.631,0.567 0.625,0.595 0.619,0.624 0.606,0.645 0.583,0.662 0.507,0.709 0.449,0.744 0.406,0.769 0.364,0.792 0.3,0.817 0.219,0.842 0.138,0.87 0.056,0.883 -0.025,0.883 c -0.2,0 -0.367,-0.047 -0.5,-0.137 -0.147,-0.109 -0.221,-0.243 -0.221,-0.401 0,-0.157 0.074,-0.281 0.221,-0.366 0.093,-0.066 0.246,-0.121 0.463,-0.159 l 0.007,-0.004 c 0.204,-0.033 0.349,-0.085 0.44,-0.159 0.092,-0.072 0.136,-0.153 0.137,-0.246 0.002,-0.095 -0.047,-0.174 -0.15,-0.244 -0.104,-0.083 -0.244,-0.125 -0.423,-0.125 -0.176,0 -0.373,0.079 -0.591,0.238 -0.022,0.019 -0.045,0.027 -0.075,0.025 -0.027,-0.004 -0.05,-0.016 -0.065,-0.039 -0.039,-0.046 -0.035,-0.091 0.011,-0.132 0.24,-0.192 0.49,-0.29 0.755,-0.292 0.19,0 0.363,0.056 0.514,0.168 0.15,0.113 0.227,0.254 0.227,0.421 0,0.168 -0.077,0.302 -0.229,0.402 C 0.347,-0.083 0.18,-0.029 0,0"
       style="fill:#231f20;fill-opacity:1;fill-rule:nonzero;stroke:none"
       transform="matrix(1.3333333,0,0,-1.3333333,318.91013,103.06373)"
       clip-path="url(#clipPath238)" />
    <path
       id="path239"
       d="m 0,0 c -0.029,0 -0.053,-0.01 -0.072,-0.029 -0.019,-0.019 -0.029,-0.045 -0.029,-0.072 v -0.095 c 0,-0.031 0.01,-0.056 0.029,-0.077 0.019,-0.021 0.043,-0.031 0.072,-0.031 0.027,0 0.052,0.01 0.071,0.031 0.022,0.021 0.033,0.046 0.033,0.077 v 0.095 c 0,0.027 -0.011,0.053 -0.033,0.072 C 0.052,-0.01 0.027,0 0,0"
       style="fill:#231f20;fill-opacity:1;fill-rule:nonzero;stroke:none"
       transform="matrix(1.3333333,0,0,-1.3333333,321.06387,100.998)"
       clip-path="url(#clipPath240)" />
    <path
       id="path241"
       d="m 0,0 c -0.029,0 -0.055,-0.01 -0.074,-0.029 -0.019,-0.02 -0.029,-0.045 -0.029,-0.072 v -1.84 c 0,-0.029 0.01,-0.052 0.029,-0.071 0.019,-0.02 0.043,-0.03 0.072,-0.03 0.027,0 0.052,0.01 0.071,0.03 0.022,0.019 0.034,0.042 0.034,0.071 v 1.84 c 0,0.027 -0.012,0.052 -0.032,0.072 C 0.052,-0.01 0.029,0 0,0"
       style="fill:#231f20;fill-opacity:1;fill-rule:nonzero;stroke:none"
       transform="matrix(1.3333333,0,0,-1.3333333,321.0664,101.886)"
       clip-path="url(#clipPath242)" />
    <path
       id="path243"
       d="m 0,0 c -0.242,0 -0.446,-0.099 -0.61,-0.296 v 0.195 c 0,0.027 -0.01,0.051 -0.028,0.07 C -0.655,-0.01 -0.679,0 -0.705,0 -0.734,0 -0.758,-0.01 -0.777,-0.031 -0.796,-0.05 -0.806,-0.074 -0.806,-0.101 v -1.861 l 0.004,-0.01 c 0,-0.004 0.002,-0.009 0.004,-0.011 0.013,-0.027 0.036,-0.047 0.068,-0.055 h 0.025 c 0.048,0 0.081,0.028 0.095,0.084 v 1.125 c 0.006,0.174 0.069,0.323 0.191,0.445 0.122,0.122 0.27,0.182 0.443,0.182 0.175,0 0.323,-0.062 0.445,-0.184 0.121,-0.123 0.183,-0.273 0.183,-0.443 v -1.108 c 0,-0.029 0.01,-0.052 0.03,-0.071 0.018,-0.02 0.042,-0.03 0.069,-0.03 0.029,0 0.053,0.01 0.071,0.03 0.02,0.019 0.03,0.042 0.03,0.071 v 1.108 c 0,0.226 -0.081,0.422 -0.245,0.585 C 0.445,-0.082 0.243,0 0,0"
       style="fill:#231f20;fill-opacity:1;fill-rule:nonzero;stroke:none"
       transform="matrix(1.3333333,0,0,-1.3333333,323.69787,101.8912)"
       clip-path="url(#clipPath244)" />
    <path
       id="path245"
       d="m 0,0 c -0.149,-0.159 -0.328,-0.238 -0.537,-0.238 -0.211,0 -0.389,0.079 -0.538,0.238 -0.148,0.161 -0.223,0.353 -0.223,0.579 0,0.227 0.075,0.419 0.223,0.577 0.149,0.159 0.327,0.237 0.538,0.237 C -0.328,1.393 -0.149,1.315 0,1.158 0.148,1.001 0.223,0.81 0.223,0.581 0.223,0.354 0.148,0.161 0,0 M 0.325,1.594 C 0.298,1.594 0.274,1.584 0.253,1.565 0.234,1.545 0.223,1.521 0.223,1.493 v -0.3 c -0.086,0.122 -0.197,0.219 -0.331,0.292 -0.134,0.072 -0.28,0.109 -0.431,0.109 -0.265,0 -0.489,-0.101 -0.678,-0.298 -0.187,-0.2 -0.28,-0.438 -0.28,-0.717 0,-0.279 0.093,-0.517 0.278,-0.716 0.187,-0.198 0.413,-0.299 0.68,-0.299 0.155,0 0.299,0.037 0.433,0.107 0.132,0.072 0.243,0.168 0.329,0.294 v -0.25 c 0,-0.211 -0.075,-0.391 -0.223,-0.538 -0.149,-0.147 -0.328,-0.22 -0.539,-0.22 -0.118,0 -0.229,0.024 -0.333,0.075 -0.06,0.033 -0.103,0.019 -0.134,-0.045 -0.028,-0.05 -0.013,-0.094 0.041,-0.133 0.148,-0.064 0.289,-0.097 0.426,-0.097 0.266,0 0.492,0.095 0.68,0.281 0.188,0.188 0.281,0.414 0.281,0.677 v 1.778 c 0,0.028 -0.01,0.052 -0.029,0.072 -0.02,0.019 -0.042,0.029 -0.068,0.029"
       style="fill:#231f20;fill-opacity:1;fill-rule:nonzero;stroke:none"
       transform="matrix(1.3333333,0,0,-1.3333333,327.9792,104.0116)"
       clip-path="url(#clipPath246)" />
    <path
       id="path247"
       d="m 0,0 c -0.029,0 -0.053,-0.01 -0.071,-0.029 -0.02,-0.019 -0.03,-0.045 -0.03,-0.072 v -0.095 c 0,-0.031 0.01,-0.056 0.03,-0.077 0.018,-0.021 0.042,-0.031 0.071,-0.031 0.027,0 0.053,0.01 0.071,0.031 0.022,0.021 0.033,0.046 0.033,0.077 v 0.095 c 0,0.027 -0.011,0.053 -0.033,0.072 C 0.053,-0.01 0.027,0 0,0"
       style="fill:#231f20;fill-opacity:1;fill-rule:nonzero;stroke:none"
       transform="matrix(1.3333333,0,0,-1.3333333,331.914,100.998)"
       clip-path="url(#clipPath248)" />
    <path
       id="path249"
       d="m 0,0 c -0.029,0 -0.055,-0.01 -0.073,-0.029 -0.02,-0.02 -0.03,-0.045 -0.03,-0.072 v -1.84 c 0,-0.029 0.01,-0.052 0.03,-0.071 0.018,-0.02 0.042,-0.03 0.071,-0.03 0.027,0 0.053,0.01 0.071,0.03 0.022,0.019 0.034,0.042 0.034,0.071 v 1.84 c 0,0.027 -0.012,0.052 -0.032,0.072 C 0.053,-0.01 0.029,0 0,0"
       style="fill:#231f20;fill-opacity:1;fill-rule:nonzero;stroke:none"
       transform="matrix(1.3333333,0,0,-1.3333333,331.91667,101.886)"
       clip-path="url(#clipPath250)" />
    <path
       id="path251"
       d="m 0,0 c 0.01,0.029 0,0.056 -0.025,0.083 -0.028,0.025 -0.057,0.039 -0.091,0.035 h -1.32 c -0.029,0 -0.051,-0.01 -0.071,-0.029 -0.019,-0.019 -0.029,-0.043 -0.029,-0.071 0,-0.028 0.01,-0.051 0.029,-0.07 0.02,-0.02 0.042,-0.03 0.071,-0.03 h 1.137 l -1.204,-1.649 c -0.021,-0.016 -0.033,-0.039 -0.033,-0.07 v -0.004 c 0,-0.068 0.033,-0.101 0.1,-0.101 h 1.332 c 0.028,0 0.051,0.01 0.071,0.03 0.019,0.019 0.031,0.042 0.031,0.071 0,0.027 -0.012,0.05 -0.031,0.07 -0.02,0.019 -0.043,0.029 -0.071,0.029 h -1.14 l 1.199,1.646 C -0.025,-0.05 -0.01,-0.029 0,0"
       style="fill:#231f20;fill-opacity:1;fill-rule:nonzero;stroke:none"
       transform="matrix(1.3333333,0,0,-1.3333333,335.34373,102.06693)"
       clip-path="url(#clipPath252)" />
    <path
       id="path253"
       d="m 0,0 c 0.01,0.029 0,0.056 -0.025,0.083 -0.028,0.025 -0.057,0.039 -0.091,0.035 h -1.32 c -0.029,0 -0.051,-0.01 -0.071,-0.029 -0.019,-0.019 -0.029,-0.043 -0.029,-0.071 0,-0.028 0.01,-0.051 0.029,-0.07 0.02,-0.02 0.042,-0.03 0.071,-0.03 h 1.137 l -1.204,-1.649 c -0.021,-0.016 -0.033,-0.039 -0.033,-0.07 v -0.004 c 0,-0.068 0.033,-0.101 0.1,-0.101 h 1.333 c 0.027,0 0.05,0.01 0.07,0.03 0.019,0.019 0.031,0.042 0.031,0.071 0,0.027 -0.012,0.05 -0.031,0.07 -0.02,0.019 -0.043,0.029 -0.07,0.029 h -1.141 l 1.199,1.646 C -0.025,-0.05 -0.01,-0.029 0,0"
       style="fill:#231f20;fill-opacity:1;fill-rule:nonzero;stroke:none"
       transform="matrix(1.3333333,0,0,-1.3333333,338.55853,102.06693)"
       clip-path="url(#clipPath254)" />
    <path
       id="path255"
       d="m 0,0 h -0.025 c -0.004,0 -0.008,-0.002 -0.014,-0.004 h -0.008 c -0.027,-0.01 -0.043,-0.019 -0.043,-0.031 -0.006,-0.008 -0.009,-0.014 -0.014,-0.019 -0.006,-0.006 -0.01,-0.02 -0.01,-0.043 v -1.108 c -0.002,-0.174 -0.065,-0.323 -0.187,-0.445 -0.122,-0.122 -0.27,-0.183 -0.443,-0.183 -0.174,0 -0.321,0.061 -0.443,0.183 -0.123,0.122 -0.184,0.271 -0.184,0.445 v 1.108 c 0,0.029 -0.01,0.05 -0.029,0.07 C -1.42,-0.01 -1.443,0 -1.473,0 c -0.026,0 -0.049,-0.01 -0.069,-0.027 -0.02,-0.02 -0.029,-0.041 -0.029,-0.07 v -1.108 c 0,-0.227 0.08,-0.422 0.242,-0.585 0.161,-0.162 0.36,-0.244 0.599,-0.246 0.238,-0.002 0.445,0.095 0.616,0.291 v -0.134 c -0.002,-0.211 -0.078,-0.391 -0.229,-0.538 -0.149,-0.147 -0.33,-0.221 -0.541,-0.221 -0.118,0 -0.228,0.027 -0.333,0.079 -0.061,0.018 -0.106,0 -0.132,-0.052 -0.026,-0.05 -0.011,-0.095 0.043,-0.13 0.144,-0.064 0.284,-0.096 0.422,-0.096 0.27,0 0.498,0.092 0.686,0.278 0.19,0.186 0.285,0.413 0.285,0.68 v 1.782 C 0.087,-0.047 0.058,-0.014 0,0"
       style="fill:#231f20;fill-opacity:1;fill-rule:nonzero;stroke:none"
       transform="matrix(1.3333333,0,0,-1.3333333,341.7708,101.886)"
       clip-path="url(#clipPath256)" />
    <path
       id="path257"
       d="m 0,0 c -0.041,0.041 -0.089,0.06 -0.147,0.06 -0.058,0 -0.109,-0.019 -0.148,-0.06 -0.04,-0.041 -0.061,-0.089 -0.061,-0.147 0,-0.061 0.021,-0.109 0.061,-0.149 0.039,-0.041 0.09,-0.06 0.148,-0.06 0.058,0 0.106,0.019 0.147,0.06 0.041,0.04 0.06,0.088 0.06,0.149 C 0.06,-0.089 0.041,-0.041 0,0"
       style="fill:#231f20;fill-opacity:1;fill-rule:nonzero;stroke:none"
       transform="matrix(1.3333333,0,0,-1.3333333,343.72,104.1328)"
       clip-path="url(#clipPath258)" />
    <path
       id="path259"
       d="m 0,0 c -0.081,-0.163 -0.16,-0.302 -0.245,-0.431 -0.107,-0.161 -0.202,-0.293 -0.302,-0.413 -0.312,-0.389 -0.622,-0.73 -0.92,-1.013 -0.294,-0.281 -0.668,-0.61 -1.11,-0.977 L -2.933,-3.14 C -3.345,-3.492 -3.68,-3.798 -3.928,-4.048 -4.172,-4.294 -4.419,-4.613 -4.663,-4.996 -4.896,-5.361 -5.035,-6.065 -5.088,-6.377 h 0.966 c 0.079,0.158 0.156,0.294 0.239,0.42 0.046,0.069 0.094,0.139 0.144,0.207 0.051,0.07 0.103,0.139 0.158,0.206 0.079,0.097 0.156,0.191 0.234,0.282 0.232,0.272 0.462,0.518 0.685,0.731 0.294,0.28 0.668,0.609 1.111,0.977 l 0.356,0.304 c 0.412,0.353 0.746,0.659 0.996,0.91 0.242,0.244 0.489,0.563 0.734,0.947 0.232,0.364 0.371,1.069 0.421,1.355 l -0.025,0.027 z"
       style="fill:#231f20;fill-opacity:1;fill-rule:nonzero;stroke:none"
       transform="matrix(1.3333333,0,0,-1.3333333,223.77347,87.524)"
       clip-path="url(#clipPath260)" />
    <path
       id="path261"
       d="M 0,0 0.615,0.538 C 1.054,0.912 1.405,1.232 1.659,1.49 1.81,1.642 1.971,1.838 2.14,2.071 2.252,2.226 2.347,2.366 2.438,2.51 2.485,2.587 2.528,2.664 2.569,2.741 2.73,3.041 2.84,3.338 2.893,3.627 H 1.777 C 1.679,3.479 1.589,3.356 1.494,3.242 1.182,2.854 0.873,2.512 0.575,2.229 0.281,1.949 -0.093,1.62 -0.535,1.252 L -0.892,0.947 C -1.304,0.594 -1.639,0.288 -1.887,0.038 -2.13,-0.207 -2.377,-0.526 -2.621,-0.91 -2.854,-1.275 -2.993,-1.979 -3.046,-2.291 h 0.978 c 0.116,0.225 0.246,0.424 0.384,0.593 0.305,0.37 0.573,0.669 0.794,0.887 C -0.668,-0.592 -0.368,-0.319 0,0"
       style="fill:#231f20;fill-opacity:1;fill-rule:nonzero;stroke:none"
       transform="matrix(1.3333333,0,0,-1.3333333,219.22787,90.694)"
       clip-path="url(#clipPath262)" />
    <path
       id="path263"
       d="m 0,0 c -0.305,-0.371 -0.572,-0.669 -0.794,-0.887 -0.223,-0.219 -0.521,-0.492 -0.89,-0.811 L -2.299,-2.236 C -2.52,-2.424 -2.717,-2.598 -2.891,-2.757 -2.978,-2.836 -3.06,-2.912 -3.135,-2.983 -3.21,-3.056 -3.279,-3.124 -3.343,-3.188 -3.382,-3.228 -3.422,-3.27 -3.461,-3.313 -3.501,-3.358 -3.54,-3.404 -3.58,-3.453 -3.661,-3.55 -3.742,-3.656 -3.823,-3.769 -3.934,-3.921 -4.031,-4.065 -4.121,-4.208 -4.169,-4.285 -4.212,-4.362 -4.253,-4.439 -4.41,-4.73 -4.518,-5.021 -4.571,-5.308 c 0.002,-0.008 0.011,-0.017 0.025,-0.017 h 3.632 v 0.642 c 0,0.127 0.045,0.235 0.133,0.319 0.086,0.083 0.19,0.125 0.308,0.125 0.119,0 0.224,-0.042 0.311,-0.125 0.088,-0.085 0.132,-0.192 0.132,-0.319 v -1.086 c 0,-0.126 -0.043,-0.235 -0.129,-0.324 -0.087,-0.089 -0.196,-0.135 -0.325,-0.135 h -4.03 -0.548 c -0.06,0 -0.118,0.012 -0.17,0.035 -0.052,0.023 -0.1,0.056 -0.143,0.101 -0.021,0.021 -0.033,0.043 -0.05,0.072 -0.054,0.082 -0.079,0.164 -0.079,0.251 0,0.263 0.03,0.532 0.092,0.802 h -1.113 c -0.121,0 -0.227,0.045 -0.318,0.133 -0.091,0.089 -0.136,0.194 -0.136,0.312 0,0.39 0.065,0.834 0.185,1.264 h -1.1 c -0.119,0 -0.225,0.045 -0.316,0.133 -0.091,0.09 -0.138,0.194 -0.138,0.312 0,0.79 0.289,1.991 0.923,2.76 0.305,0.37 0.572,0.669 0.794,0.887 0.222,0.219 0.522,0.492 0.89,0.811 l 0.615,0.538 c 0.439,0.375 0.79,0.695 1.044,0.952 0.15,0.153 0.312,0.348 0.48,0.581 0.113,0.156 0.207,0.295 0.297,0.439 0.049,0.077 0.092,0.155 0.133,0.231 0.161,0.3 0.27,0.597 0.323,0.886 H -6.511 V 4.631 c 0,-0.128 -0.045,-0.235 -0.133,-0.319 -0.085,-0.083 -0.19,-0.125 -0.309,-0.125 -0.118,0 -0.223,0.042 -0.31,0.125 -0.088,0.084 -0.132,0.191 -0.132,0.319 v 1.085 c 0,0.126 0.043,0.235 0.129,0.324 0.087,0.089 0.197,0.135 0.326,0.135 h 4.577 c 0.121,0 0.226,-0.046 0.312,-0.135 0.086,-0.088 0.13,-0.197 0.13,-0.324 0,-0.424 -0.073,-0.844 -0.218,-1.25 h 1.144 c 0.12,0 0.225,-0.046 0.311,-0.135 0.086,-0.089 0.13,-0.198 0.13,-0.324 0,-0.262 -0.03,-0.531 -0.091,-0.8 h 0.216 c 0.558,0 0.792,0 0.897,-0.012 v 0.01 C 0.587,3.205 0.694,3.16 0.785,3.072 0.876,2.982 0.923,2.878 0.923,2.761 0.923,1.971 0.634,0.77 0,0 m 4.603,9.566 h -16.63 c -0.763,0 -1.381,-0.618 -1.381,-1.381 V -5.04 c 0,-0.18 0.145,-0.326 0.326,-0.326 0.18,0 0.82,-0.049 1.14,-0.562 1.712,-2.744 4.756,-4.572 8.229,-4.572 3.474,0 6.519,1.828 8.231,4.572 0.319,0.513 0.96,0.562 1.139,0.562 0.181,0 0.326,0.146 0.326,0.326 V 8.185 c 0,0.763 -0.618,1.381 -1.38,1.381"
       style="fill:#231f20;fill-opacity:1;fill-rule:nonzero;stroke:none"
       transform="matrix(1.3333333,0,0,-1.3333333,225.05987,90.608667)"
       clip-path="url(#clipPath264)" />
  </g>
</svg>
